<?xml version="1.0" standalone="no"?>
<!DOCTYPE svg PUBLIC "-//W3C//DTD SVG 20010904//EN"
 "http://www.w3.org/TR/2001/REC-SVG-20010904/DTD/svg10.dtd">
<svg version="1.0" xmlns="http://www.w3.org/2000/svg"
 width="50.000000pt" height="50.000000pt" viewBox="0 0 50.000000 50.000000"
 preserveAspectRatio="xMidYMid meet">

<g transform="translate(0.000000,50.000000) scale(0.100000,-0.100000)"
fill="#000000" stroke="none">
<path d="M142 357 c-67 -67 -122 -127 -122 -132 0 -13 192 -205 205 -205 6 0
65 55 133 123 l122 122 0 96 c0 60 -4 99 -12 107 -8 8 -47 12 -108 12 l-95 0
-123 -123z m273 33 c0 -18 -6 -26 -23 -28 -13 -2 -25 3 -28 12 -10 26 4 48 28
44 17 -2 23 -10 23 -28z m-87 -100 c0 -47 -11 -63 -18 -25 -4 21 -12 31 -28
33 -30 5 -37 -19 -17 -58 28 -54 5 -83 -60 -76 -27 3 -29 6 -30 42 0 21 4 41
10 44 5 3 9 -8 10 -24 0 -38 28 -57 51 -35 14 15 14 19 -1 49 -30 57 -11 85
56 85 24 0 27 -4 27 -35z"/>
</g>
</svg>
